<?xml version="1.0" encoding="UTF-8" standalone="no"?>
<!-- Created with Inkscape (http://www.inkscape.org/) -->

<svg
   xmlns:dc="http://purl.org/dc/elements/1.1/"
   xmlns:cc="http://creativecommons.org/ns#"
   xmlns:rdf="http://www.w3.org/1999/02/22-rdf-syntax-ns#"
   xmlns:svg="http://www.w3.org/2000/svg"
   xmlns="http://www.w3.org/2000/svg"
   xmlns:sodipodi="http://sodipodi.sourceforge.net/DTD/sodipodi-0.dtd"
   xmlns:inkscape="http://www.inkscape.org/namespaces/inkscape"
   id="svg2"
   sodipodi:docname="tanabataremix.svg"
   viewBox="0 0 744.09 1052.4"
   sodipodi:version="0.32"
   inkscape:output_extension="org.inkscape.output.svg.inkscape"
   inkscape:version="0.91 r13725"
   version="1.1">
  <defs
     id="defs37652" />
  <sodipodi:namedview
     id="base"
     bordercolor="#666666"
     inkscape:pageshadow="2"
     guidetolerance="10"
     pagecolor="#ffffff"
     gridtolerance="10000"
     inkscape:window-height="1035"
     inkscape:zoom="0.80160106"
     objecttolerance="10"
     inkscape:window-y="1"
     borderopacity="1.0"
     inkscape:current-layer="g4656"
     inkscape:cx="328.65526"
     inkscape:cy="479.871"
     showguides="true"
     inkscape:guide-bbox="true"
     inkscape:window-x="4"
     inkscape:window-width="1916"
     inkscape:pageopacity="0.0"
     inkscape:document-units="px"
     showgrid="false"
     inkscape:window-maximized="1" />
  <g
     id="layer1"
     inkscape:label="Layer 1"
     inkscape:groupmode="layer">
    <g
       id="g4656"
       transform="translate(-4)">
      <g
         id="g4536"
         transform="matrix(-0.91406,0.3285,-0.31791,-0.94451,932.41,1080.6348)">
        <path
           id="path4538"
           style="fill:#008000;fill-rule:evenodd;stroke:#113411;stroke-width:2.45849991"
           d="M 278.69,402.89 299,421.56"
           inkscape:connector-curvature="0" />
        <path
           id="path4542"
           sodipodi:nodetypes="cscsc"
           style="fill:#2ba200;fill-rule:evenodd;stroke:#0c4b0c;stroke-width:1.24870002"
           d="m 278.46,405.22 c 0,0 -22.13,10.49 -40.43,11.54 -18.23,1.05 -112.08,-30.01 -112.08,-30.01 0,0 92.94,-10.1 113.89,-5.21 14.97,3.48 39.14,22.75 38.62,23.68 z"
           inkscape:connector-curvature="0" />
        <path
           id="path4540"
           style="fill:#2ba200;fill-rule:evenodd;stroke:#065309;stroke-width:1.03799999"
           d="m 280.4,404.79 c 0,0 -2.77,-25.02 -11.58,-45 -8.77,-19.89 -85,-118.85 -85,-118.85 0,0 40.65,101.87 55.92,124.16 10.9,15.92 40.15,40.34 40.66,39.69 z"
           sodipodi:nodetypes="cscsc"
           inkscape:transform-center-y="-22.102616"
           inkscape:transform-center-x="1.6378935"
           inkscape:connector-curvature="0" />
        <path
           id="path4544"
           sodipodi:nodetypes="cscsc"
           style="fill:#2ba200;fill-rule:evenodd;stroke:#155a00;stroke-width:1.52760005"
           d="m 281.2,402.89 c 0,0 -7.62,-27.28 -6.46,-49.03 1.16,-21.67 42.7,-129.39 42.7,-129.39 0,0 -1.23,110.97 -8.5,135.24 -5.19,17.33 -26.9,43.89 -27.74,43.18 z"
           inkscape:connector-curvature="0" />
      </g>
      <path
         id="path2314"
         sodipodi:nodetypes="cscsc"
         style="fill-rule:evenodd;stroke:#044600;stroke-width:1.0152;fill:#24a100"
         d="m129.3 438.14s-20.95 8.2-35.047-0.93c-15.164-9.81-81.224-66.5-81.224-66.5s72.05 21.21 80.241 25.13c10.07 4.83 36.91 42.22 36.03 42.3z" />
      <path
         id="path5667"
         sodipodi:nodetypes="cscsc"
         style="fill-rule:evenodd;stroke:#0c5907;stroke-width:1.2452;fill:#389900"
         d="m578.27 542.96s25.65-13.89 36.35-18.41c8.33-3.52 119.04-2.15 119.04-2.15s-104.09 26.95-108.78 28.4c-8.83 2.74-50.45-5.73-46.61-7.84z" />
      <path
         id="path5756"
         style="fill:none;stroke:#004400;stroke-width:2.59870005"
         d="m 245.13476,694.33875 19.63,29.13 0,1.62"
         inkscape:connector-curvature="0" />
      <path
         id="path5740"
         style="stroke:#003f00;stroke-width:2.0659;fill:none"
         d="m314.68 956.26l-18.99 10.46-7.59 5.23-3.8 2.62 30.38-18.31z" />
      <path
         id="path5730"
         sodipodi:nodetypes="cscsc"
         style="fill-rule:evenodd;stroke:#064500;stroke-width:1.1917;fill:#24b500"
         d="m315.49 954.54s18.48-15.45 23.19-30.34c5.07-16.02 19.8-90.09 19.8-90.09s-37.5 68.31-40.96 76.54c-4.27 10.12-2.67 44.62-2.03 43.89z" />
      <path
         id="path5728"
         style="stroke:#005100;stroke-width:1.9675;fill:none"
         d="m555.15 310.75l15.18 43.16" />
      <g
         id="g5723"
         transform="matrix(-.41221 .90475 -.87558 -.42594 1498 -265.71)">
        <path
           id="path5717"
           sodipodi:nodetypes="cscsc"
           style="fill-rule:evenodd;stroke:#044600;stroke-width:1.032;fill:#24a100"
           d="m936.48 634.21s-21.65 8.19-36.21-0.93c-15.67-9.82-83.93-66.51-83.93-66.51s74.45 21.21 82.91 25.14c10.41 4.82 38.14 42.21 37.23 42.3z" />
        <path
           id="path5719"
           sodipodi:nodetypes="cscsc"
           style="fill-rule:evenodd;stroke:#1a6000;stroke-width:2.096;fill:#3bae00"
           d="m936 636.34s-14.94 26.21-29.21 34.41c-15.36 8.84-86.28 38.35-86.28 38.35s65.63-58.34 73.53-64c9.71-6.96 42.67-9.7 41.96-8.76z" />
        <path
           id="path5721"
           sodipodi:nodetypes="cscsc"
           style="fill-rule:evenodd;stroke:#064500;stroke-width:1.8706;fill:#24b500"
           d="m936.59 637.81s5.56 39.98-3.4 65.23c-9.64 27.18-63.72 143.98-63.72 143.98s23.74-131.97 27.75-146.8c4.93-18.24 39.36-64.07 39.37-62.41z" />
      </g>
      <g
         id="g5710"
         transform="matrix(.96776 0 0 1 -719.34 91.452)">
        <path
           id="path5696"
           sodipodi:nodetypes="cscsc"
           style="fill-rule:evenodd;stroke:#1a6000;stroke-width:2.096;fill:#3bae00"
           d="m989.76 791.29s-19.62-22.92-22.52-39.12c-3.12-17.45-6.93-94.17-6.93-94.17s32.73 81.49 35.38 90.83c3.27 11.5-5.29 43.44-5.93 42.46z" />
        <path
           id="path5698"
           sodipodi:nodetypes="cscsc"
           style="fill-rule:evenodd;stroke:#064500;stroke-width:1.3224;fill:#24b500"
           d="m988.46 792.93s-28.96-5.64-44.16-17.21c-16.36-12.45-83.53-74.06-83.53-74.06s85.15 45.63 94.39 51.63c11.36 7.36 34.45 40.02 33.3 39.64z" />
        <path
           id="path5708"
           style="fill-rule:evenodd;stroke:#064500;stroke-width:1.3224;fill:#24b500"
           d="m989.6 792.71s11.6-27.15 26-39.6c15.6-13.4 89.9-66.26 89.9-66.26s-62.4 73.77-70.2 81.56c-9.6 9.58-46.3 25.34-45.7 24.3z"
           sodipodi:nodetypes="cscsc"
           inkscape:transform-center-y="61.466124"
           inkscape:transform-center-x="-58.609105" />
      </g>
      <path
         id="path5692"
         style="stroke:#005400;stroke-width:2.361;fill:none"
         d="m548.82 754.09l-24.05 35.31" />
      <path
         id="path5684"
         style="fill:#008000;fill-rule:evenodd;stroke:#004c00;stroke-width:2.06590009"
         d="m 581.93175,188.62658 14.98798,40.31899"
         inkscape:connector-curvature="0"
         sodipodi:nodetypes="cc" />
      <g
         id="g5677"
         transform="matrix(-0.060744,0.99803,-0.96585,-0.062767,1000.7718,-516.72342)">
        <path
           id="path5671"
           sodipodi:nodetypes="cscsc"
           style="fill:#24b600;fill-rule:evenodd;stroke:#000000;stroke-width:0.62577999px"
           inkscape:transform-center-x="-19.191564"
           d="m 733.54,387.88 c 0,0 6.5,21.82 6.02,42.45 -0.56,24.39 -15.66,90.76 -15.66,90.76 0,0 -2.48,-62.79 -5.04,-82.26 -2.12,-16.12 13.85,-53.21 14.68,-50.95 z"
           inkscape:connector-curvature="0" />
        <path
           id="path5673"
           sodipodi:nodetypes="cscsc"
           style="fill:#24b600;fill-rule:evenodd;stroke:#000000;stroke-width:0.53909999px"
           d="m 733.2,386.58 c 0,0 -4.23,12.88 -16.04,23.48 -13.95,12.52 -67.92,43.33 -67.92,43.33 0,0 31.3,-33.17 38.9,-43.9 6.28,-8.87 45.32,-24.28 45.06,-22.91 z"
           inkscape:connector-curvature="0" />
        <path
           id="path5675"
           sodipodi:nodetypes="cscsc"
           style="fill:#24b600;fill-rule:evenodd;stroke:#000000;stroke-width:0.36447999px"
           d="m 733.29,386.69 c 0,0 -17.1,-6.05 -30.44,-13.64 -15.75,-8.96 -52.82,-37.18 -52.82,-37.18 0,0 42.25,21.98 56.13,28.29 11.48,5.23 28.96,23.12 27.13,22.53 z"
           inkscape:connector-curvature="0" />
      </g>
      <path
         id="path5640"
         style="stroke:#006e00;stroke-width:2.1148;fill:none"
         d="m578.37 542.88l-40.42 5.4" />
      <path
         sodipodi:nodetypes="cc"
         inkscape:connector-curvature="0"
         d="m 480.26717,706.87532 14.98798,40.31899"
         style="fill:#008000;fill-rule:evenodd;stroke:#004c00;stroke-width:2.06590009"
         id="path38194" />
      <path
         id="path5663"
         style="stroke:#003b00;stroke-width:1.9675;fill:none"
         d="m503.36 608.48l17.9 33.29" />
      <g
         id="g5658"
         transform="matrix(-.46665 .87606 -.84782 -.48220 1512.2 15.7)">
        <path
           id="path5652"
           sodipodi:nodetypes="cscsc"
           style="fill-rule:evenodd;stroke:#000000;stroke-width:.62578px;fill:#24b600"
           inkscape:transform-center-x="-19.191564"
           d="m1023 628.85s6.5 21.82 6.1 42.45c-0.6 24.39-15.7 90.76-15.7 90.76s-2.5-62.79-5-82.26c-2.2-16.12 13.8-53.21 14.6-50.95z" />
        <path
           id="path5654"
           sodipodi:nodetypes="cscsc"
           style="fill-rule:evenodd;stroke:#000000;stroke-width:.53910px;fill:#24b600"
           d="m1022.7 627.55s-4.2 12.88-16 23.48c-13.99 12.52-67.96 43.33-67.96 43.33s31.3-33.17 38.89-43.9c6.29-8.87 45.37-24.28 45.07-22.91z" />
        <path
           id="path5656"
           sodipodi:nodetypes="cscsc"
           style="fill-rule:evenodd;stroke:#000000;stroke-width:.36448px;fill:#24b600"
           d="m1022.8 627.66s-17.1-6.05-30.45-13.64c-15.76-8.96-52.82-37.18-52.82-37.18s42.25 21.98 56.12 28.29c11.45 5.23 28.95 23.12 27.15 22.53z" />
      </g>
      <path
         id="path5615"
         style="fill-rule:evenodd;stroke:#006d00;stroke-width:2.7008;fill:#008000"
         d="m518.56 498.54l19.38 60.57" />
      <path
         id="path5577"
         style="fill-rule:evenodd;stroke:#113411;stroke-width:2.4186;fill:#008000"
         d="m313.65 824.99l-10.59 25.31" />
      <path
         inkscape:connector-curvature="0"
         d="m 94.080772,264.0729 48.759998,-37.78"
         style="fill:none;stroke:#006e00;stroke-width:2.71659994"
         id="path38204" />
      <path
         id="path4435"
         d="m97.147 262.99s6.293 21.82 5.833 42.46c-0.54 24.38-15.16 90.76-15.16 90.76s-2.399-62.79-4.88-82.27c-2.052-16.11 13.41-53.21 14.207-50.95z"
         inkscape:transform-center-x="-19.191564"
         style="fill-rule:evenodd;stroke:#000000;stroke-width:.61561px;fill:#24b600"
         sodipodi:nodetypes="cscsc" />
      <path
         id="path5565"
         style="stroke:#007900;stroke-width:3.3972;fill:none"
         d="m200.55 556.84l-10.95 32.24" />
      <path
         id="path4528"
         style="fill-rule:evenodd;stroke:#113411;stroke-width:2.4186;fill:#008000"
         d="m257.25 484.13l14.31 23.28" />
      <g
         transform="matrix(-0.060744,0.99803,-0.96585,-0.062767,899.10722,1.5253218)"
         id="g38196">
        <path
           inkscape:connector-curvature="0"
           d="m 733.54,387.88 c 0,0 6.5,21.82 6.02,42.45 -0.56,24.39 -15.66,90.76 -15.66,90.76 0,0 -2.48,-62.79 -5.04,-82.26 -2.12,-16.12 13.85,-53.21 14.68,-50.95 z"
           inkscape:transform-center-x="-19.191564"
           style="fill:#24b600;fill-rule:evenodd;stroke:#000000;stroke-width:0.62577999px"
           sodipodi:nodetypes="cscsc"
           id="path38198" />
        <path
           inkscape:connector-curvature="0"
           d="m 733.2,386.58 c 0,0 -4.23,12.88 -16.04,23.48 -13.95,12.52 -67.92,43.33 -67.92,43.33 0,0 31.3,-33.17 38.9,-43.9 6.28,-8.87 45.32,-24.28 45.06,-22.91 z"
           style="fill:#24b600;fill-rule:evenodd;stroke:#000000;stroke-width:0.53909999px"
           sodipodi:nodetypes="cscsc"
           id="path38200" />
        <path
           inkscape:connector-curvature="0"
           d="m 733.29,386.69 c 0,0 -17.1,-6.05 -30.44,-13.64 -15.75,-8.96 -52.82,-37.18 -52.82,-37.18 0,0 42.25,21.98 56.13,28.29 11.48,5.23 28.96,23.12 27.13,22.53 z"
           style="fill:#24b600;fill-rule:evenodd;stroke:#000000;stroke-width:0.36447999px"
           sodipodi:nodetypes="cscsc"
           id="path38202" />
      </g>
      <path
         id="path3141"
         style="stroke:#008000;stroke-width:37.579;fill:none"
         d="m509.51 989.26v-254.29l55.3-257.14 58.06-325.71" />
      <path
         id="path3455"
         style="fill-rule:evenodd;stroke:#154200;stroke-width:2.7545;fill:#008000"
         d="m125.4 617.99l27.15-28.05v1.47h1.42-1.42" />
      <path
         id="path4522"
         style="fill-rule:evenodd;stroke:#138104;stroke-width:3.2759;fill:#008000"
         d="m127.6 436.38l18.55 50.16" />
      <path
         id="path2316"
         sodipodi:nodetypes="cscsc"
         style="fill-rule:evenodd;stroke:#1a6000;stroke-width:2.0619;fill:#3bae00"
         d="m128.84 440.27s-14.46 26.21-28.27 34.42c-14.868 8.83-83.506 38.35-83.506 38.35s63.518-58.34 71.161-64c9.4-6.97 41.295-9.71 40.615-8.77z" />
      <path
         id="path2318"
         sodipodi:nodetypes="cscsc"
         style="fill-rule:evenodd;stroke:#064500;stroke-width:1.8562;fill:#24b500"
         d="m125.3 618.03s4.8 43.3-3.72 68.73c-9.17 27.37-60.285 143.08-60.285 143.08s23.143-136.46 26.987-151.59c4.728-18.61 37.018-61.98 37.018-60.22z" />
      <path
         id="path2160"
         style="fill-rule:evenodd;fill-opacity:.93506;stroke:#008000;stroke-width:50.159;fill:#009a00"
         d="m194.91 983.43l-8.29-131.43-13.83-162.86-11.06-340-2.76-165.71" />
      <path
         id="path5569"
         style="fill:none;stroke:#006e00;stroke-width:2.71659994"
         d="m 266.96136,220.21556 37.78,48.76"
         inkscape:connector-curvature="0" />
      <path
         id="path2162"
         style="fill-rule:evenodd;stroke:#008000;stroke-width:44.859;fill:#1e861e"
         d="m278.9 984.85l5.53-200 5.53-188.57 2.77-202.86 11.06-262.85" />
      <path
         id="path5097"
         style="stroke:#134e00;stroke-width:4.9187;fill:none"
         d="m151.71 630.57h41.48" />
      <path
         id="path5105"
         style="stroke:#125900;stroke-width:5.0279;fill:none"
         d="m147.93 460.33l39.09-0.1" />
      <path
         id="path5113"
         style="stroke:#0a5a0b;stroke-width:5.1576;fill:none"
         d="m139.93 294.72l42.88-1.87" />
      <path
         id="path5117"
         style="stroke:#134700;stroke-width:3.3447;fill:none"
         d="m353.56 756.28l19.35-2.86" />
      <path
         id="path6156"
         style="stroke:#125900;stroke-width:5.0279;fill:none"
         d="m166.55 815.73l39.08-0.1" />
      <path
         id="path6158"
         style="stroke:#125900;stroke-width:5.0279;fill:none"
         d="m273.48 466.17l39.09-0.09" />
      <path
         id="path6160"
         style="stroke:#134e00;stroke-width:4.9187;fill:none"
         d="m268.27 638.13h41.47" />
      <path
         id="path6162"
         style="stroke:#134e00;stroke-width:4.9187;fill:none"
         d="m264.23 814.73h41.48" />
      <path
         id="path6164"
         style="stroke:#125900;stroke-width:5.0279;fill:none"
         d="m275.73 330.24l39.08-0.1" />
      <path
         id="path6172"
         style="stroke:#125900;stroke-width:5.0279;fill:none"
         d="m407.68 810.85l39.08-0.1" />
      <path
         id="path6174"
         style="stroke:#125900;stroke-width:5.0106;fill:none"
         d="m579.41 295.11l32.84-0.12" />
      <path
         id="path3458"
         sodipodi:nodetypes="cscsc"
         style="fill-rule:evenodd;stroke:#064500;stroke-width:1.8402;fill:#24b500"
         d="m125.33 618.34s29.97 25.91 39.94 50.64c10.74 26.62 47.82 149.5 47.82 149.5s-68.7-113.76-75.46-127.44c-8.31-16.83-13.38-73.91-12.3-72.7z" />
      <path
         id="path3464"
         sodipodi:nodetypes="cscsc"
         style="fill-rule:evenodd;stroke:#000000;stroke-width:.53034px;fill:#24b600"
         d="m96.821 261.69s-4.099 12.89-15.524 23.48c-13.499 12.52-65.729 43.34-65.729 43.34s30.292-33.18 37.643-43.9c6.082-8.87 43.863-24.29 43.61-22.92z" />
      <path
         id="path4437"
         sodipodi:nodetypes="cscsc"
         style="fill-rule:evenodd;stroke:#000000;stroke-width:.35856px;fill:#24b600"
         d="m96.903 261.81s-16.548-6.06-29.452-13.64c-15.247-8.97-51.118-37.18-51.118-37.18s40.888 21.98 54.315 28.29c11.109 5.22 28.031 23.11 26.255 22.53z" />
      <path
         id="path4518"
         sodipodi:nodetypes="cscsc"
         style="fill-rule:evenodd;stroke:#064500;stroke-width:1.8402;fill:#24b500"
         d="m129.41 441.74s5.38 39.99-3.29 65.24c-9.33 27.17-61.669 143.98-61.669 143.98s22.969-131.97 26.85-146.8c4.772-18.25 38.099-64.07 38.109-62.42z" />
      <path
         id="path4526"
         style="fill-rule:evenodd;stroke:#065309;stroke-width:1.0211;fill:#2ba200"
         d="m258.38 486.4s3.67-24.89 0.44-46.46c-3.22-21.49-49.69-136.81-49.69-136.81s12.48 108.93 21.17 134.41c6.21 18.2 27.43 49.35 28.08 48.86z"
         inkscape:transform-center-x="1.6378935"
         inkscape:transform-center-y="-22.102616"
         sodipodi:nodetypes="cscsc" />
      <path
         id="path2310"
         sodipodi:nodetypes="cscsc"
         style="fill-rule:evenodd;stroke:#0c4b0c;stroke-width:1.2284;fill:#2ba200"
         d="m256.45 486.31s-23.31 4.41-40.69 0.69c-17.3-3.71-97.25-58-97.25-58s89.41 14.3 107.77 24.44c13.12 7.24 30.89 32.11 30.17 32.87z" />
      <path
         id="path4524"
         sodipodi:nodetypes="cscsc"
         style="fill-rule:evenodd;stroke:#155a00;stroke-width:1.5028;fill:#2ba200"
         d="m259.6 484.77s-0.29-28.32 6.24-49.03c6.51-20.63 72.32-113.93 72.32-113.93s-28.94 106.87-41.82 128.43c-9.19 15.39-36.14 35.43-36.74 34.53z" />
      <path
         id="path6178"
         style="stroke:#125900;stroke-width:5.0044;fill:none"
         d="m518.74 624.09l31.06-0.12" />
      <path
         id="path6180"
         style="stroke:#125900;stroke-width:5.0044;fill:none"
         d="m492.9 804.8l31.06-0.12" />
      <path
         id="path6176"
         style="stroke:#125900;stroke-width:5.0044;fill:none"
         d="m550.04 476.12l31.06-0.12" />
      <path
         id="path4570"
         sodipodi:nodetypes="cscsc"
         style="fill:#389900;fill-rule:evenodd;stroke:#0c5907;stroke-width:1.33560002"
         d="m 267.69136,222.57556 c 0,0 -29.27,14.57 -41.51,19.39 -9.53,3.74 -137.269998,5.53 -137.269998,5.53 0,0 119.449998,-29.83 124.829998,-31.41 10.13,-2.97 58.33,4.28 53.95,6.49 z"
         inkscape:connector-curvature="0" />
      <path
         id="path5559"
         sodipodi:nodetypes="cscsc"
         style="fill-rule:evenodd;stroke:#0c5907;stroke-width:1.6549;fill:#389900"
         d="m199.58 556.93s30.73-26.09 44.03-35.52c10.35-7.33 166.29-49.33 166.29-49.33s-135.87 72.01-141.91 75.53c-11.36 6.62-73 13.26-68.41 9.32z" />
      <path
         id="path5561"
         sodipodi:nodetypes="cscsc"
         style="fill-rule:evenodd;stroke:#0c4b0c;stroke-width:1.3024;fill:#2ba200"
         d="m199.73 559.76s29.79-5.87 54.1-4.49c24.21 1.38 147.24 38.21 147.24 38.21s-123.64-3.11-151.21-9.66c-19.67-4.68-50.86-23.37-50.13-24.06z" />
      <path
         id="path5563"
         sodipodi:nodetypes="cscsc"
         style="fill-rule:evenodd;stroke:#0c4b0c;stroke-width:1.285;fill:#2ba200"
         d="m199.95 560.33s27.86 11.82 47.34 26.5c19.4 14.63 102.2 113.29 102.2 113.29s-101.13-71.47-120.58-92.19c-13.89-14.79-29.94-47.44-28.96-47.6z" />
      <path
         id="path5573"
         sodipodi:nodetypes="cscsc"
         style="fill:#389900;fill-rule:evenodd;stroke:#0c5907;stroke-width:1.42040002"
         d="m 266.95136,220.34556 c 0,0 -24.83,-11.99 -34.13,-18.2 -7.24,-4.83 -63.73,-114.599996 -63.73,-114.599996 0,0 76.43,76.499996 80.07,79.719996 6.85,6.07 21.53,54.85 17.79,53.08 z"
         inkscape:connector-curvature="0" />
      <path
         id="path5571"
         sodipodi:nodetypes="cscsc"
         style="fill:#389900;fill-rule:evenodd;stroke:#0c5907;stroke-width:1.21870005"
         d="m 268.82136,220.79556 c 0,0 1.16,-33.84 2.54,-47.2 1.08,-10.39 49.36,-119.579996 49.36,-119.579996 0,0 -25.47,119.639996 -26.46,125.179996 -1.84,10.42 -25.6,46.69 -25.44,41.6 z"
         inkscape:connector-curvature="0" />
      <path
         id="path5579"
         sodipodi:nodetypes="cscsc"
         style="fill-rule:evenodd;stroke:#0c4b0c;stroke-width:1.2284;fill:#2ba200"
         d="m311.45 825.53s-16.63-17.44-23.42-34.38c-6.75-16.87-8.24-115.72-8.24-115.72s38.81 84.45 41.02 105.85c1.57 15.28-8.34 44.44-9.36 44.25z" />
      <path
         id="path5581"
         style="fill-rule:evenodd;stroke:#065309;stroke-width:1.0211;fill:#2ba200"
         d="m312.47 827.23s21.98-10.85 37.43-25.74c15.39-14.83 81.57-119.36 81.57-119.36s-80.17 71.89-95.68 93.65c-11.07 15.53-24.08 51.18-23.32 51.45z"
         inkscape:transform-center-x="1.6378935"
         inkscape:transform-center-y="-22.102616"
         sodipodi:nodetypes="cscsc" />
      <path
         id="path5583"
         sodipodi:nodetypes="cscsc"
         style="fill-rule:evenodd;stroke:#155a00;stroke-width:1.5028;fill:#2ba200"
         d="m314.46 827.36s22.5-16.16 42.75-22.22c20.17-6.04 131.84-2.24 131.84-2.24s-101.81 35.34-126.3 36.45c-17.49 0.8-48.67-10.97-48.29-11.99z" />
      <path
         id="path5609"
         style="fill-rule:evenodd;stroke:#065309;stroke-width:1.0211;fill:#2ba200"
         d="m518.04 499.37s3.67-24.89 0.44-46.46c-3.21-21.49-49.69-136.81-49.69-136.81s12.49 108.93 21.18 134.41c6.21 18.2 27.43 49.35 28.07 48.86z"
         inkscape:transform-center-x="1.6378935"
         inkscape:transform-center-y="-22.102616"
         sodipodi:nodetypes="cscsc" />
      <path
         id="path5611"
         sodipodi:nodetypes="cscsc"
         style="fill-rule:evenodd;stroke:#0c4b0c;stroke-width:1.2284;fill:#2ba200"
         d="m516.12 499.28s-23.32 4.41-40.69 0.69c-17.3-3.71-97.26-58-97.26-58s89.41 14.3 107.78 24.44c13.11 7.24 30.88 32.11 30.17 32.87z" />
      <path
         id="path5613"
         sodipodi:nodetypes="cscsc"
         style="fill-rule:evenodd;stroke:#155a00;stroke-width:1.5028;fill:#2ba200"
         d="m519.26 497.74s-0.29-28.31 6.25-49.03c6.5-20.63 72.32-113.93 72.32-113.93s-28.95 106.87-41.82 128.43c-9.19 15.39-36.14 35.43-36.75 34.53z" />
      <path
         id="path5617"
         sodipodi:nodetypes="cscsc"
         style="fill-rule:evenodd;stroke:#257b00;stroke-width:2.2941;fill:#268600"
         d="m580.05 540.64s3.85-37.04 6.57-51.65c2.12-11.37 72.59-130.44 72.59-130.44s-41.45 130.75-43.11 136.8c-3.12 11.4-36.6 50.86-36.05 45.29z" />
      <path
         id="path5669"
         sodipodi:nodetypes="cscsc"
         style="fill-rule:evenodd;stroke:#0c5907;stroke-width:1.3356;fill:#389900"
         d="m580.7 544.64s30.96 10.2 43.05 15.39c9.42 4.04 103.41 93.45 103.41 93.45s-106.62-63.15-111.58-65.82c-9.33-5.03-39.53-44.52-34.88-43.02z" />
      <path
         id="path5686"
         sodipodi:nodetypes="cscsc"
         style="fill-rule:evenodd;stroke:#0c5907;stroke-width:1.3356;fill:#389900"
         d="m548.42 751.73s-3.76-33.35-4.16-46.87c-0.31-10.53 39.82-135.86 39.82-135.86s-11.78 126.4-12.09 132.17c-0.59 10.86-22.98 55.57-23.57 50.56z" />
      <path
         id="path5688"
         sodipodi:nodetypes="cscsc"
         style="fill-rule:evenodd;stroke:#0c5907;stroke-width:1.4204;fill:#389900"
         d="m547.86 754.16s14.34-24.13 21.37-32.98c5.46-6.88 117.4-52.47 117.4-52.47s-82.21 69.82-85.72 73.19c-6.61 6.35-55.17 15.9-53.05 12.26z" />
      <path
         id="path5690"
         sodipodi:nodetypes="cscsc"
         inkscape:transform-center-y="-11.770109"
         style="fill-rule:evenodd;stroke:#0c5907;stroke-width:1.4204;fill:#389900"
         d="m549.19 754.92s27.31-2.36 38.37-1.76c8.61 0.47 110.47 66.64 110.47 66.64s-103.14-27.06-107.85-27.99c-8.87-1.74-45.09-36.5-40.99-36.89z" />
      <path
         id="path5715"
         style="stroke:#186f00;stroke-width:1.7707;fill:none"
         d="m237.47 884.87l21.52 24.85" />
      <path
         id="path5732"
         sodipodi:nodetypes="cscsc"
         style="fill-rule:evenodd;stroke:#064500;stroke-width:1.1815;fill:#24b500"
         d="m314.54 955.65s18.81 18.74 33.57 22.88c15.89 4.45 87.1 15.78 87.1 15.78s-71.81-35.87-80.19-39.08c-10.31-3.93-41.3-0.22-40.48 0.42z" />
      <path
         id="path5736"
         style="fill-rule:evenodd;stroke:#000000;stroke-width:.61561px;fill:#24b600"
         d="m315.73 956.1s24.77-6.8 43.34-17.54c21.94-12.69 71.68-56.06 71.68-56.06s-59.38 30.12-79.11 38.3c-16.33 6.76-38.59 35.91-35.91 35.3z"
         inkscape:transform-center-x="-14.199733"
         inkscape:transform-center-y="12.198705"
         sodipodi:nodetypes="cscsc" />
      <path
         id="path5742"
         sodipodi:nodetypes="cscsc"
         style="fill:#24a100;fill-rule:evenodd;stroke:#044600;stroke-width:0.85529"
         d="m 246.50476,693.67875 c 0,0 -2.63,-17.92 8.12,-27.34 11.58,-10.14 73.93,-51.83 73.93,-51.83 0,0 -33.23,52.76 -38.3,58.49 -6.24,7.04 -43.86,21.39 -43.75,20.68 z"
         inkscape:connector-curvature="0" />
      <path
         id="path5744"
         sodipodi:nodetypes="cscsc"
         style="fill:#3bae00;fill-rule:evenodd;stroke:#1a6000;stroke-width:1.73710001"
         d="m 244.77476,692.93875 c 0,0 -19.41,-16.06 -23.55,-28.37 -4.46,-13.26 -15.38,-72.45 -15.38,-72.45 0,0 36.67,60.35 39.92,67.36 4,8.63 -0.33,34.16 -0.99,33.46 z"
         inkscape:connector-curvature="0" />
      <path
         id="path5746"
         sodipodi:nodetypes="cscsc"
         style="fill:#24b500;fill-rule:evenodd;stroke:#064500;stroke-width:0.63353002"
         d="m 243.87476,693.58875 c 0,0 -16.36,-1.06 -25.53,-5.16 -9.86,-4.4 -51.07,-26.8 -51.07,-26.8 0,0 50.06,15.06 55.56,17.12 6.77,2.54 21.7,14.95 21.04,14.84 z"
         inkscape:connector-curvature="0" />
      <g
         id="g38233">
        <path
           inkscape:connector-curvature="0"
           id="path38208"
           d="m 330.55855,268.30794 c -12.24183,21.48908 -27.80412,28.17928 -46.40039,29.36524 39.73911,67.28539 76.59341,133.67008 91.625,193.23437 32.66489,7.4145 51.57432,-6.56864 70.48047,-20.55664 -31.44748,-86.3368 -75.64097,-138.68385 -115.70508,-202.04297 z m -7.92969,33.47657 a 7.3416924,7.6353602 0 0 1 7.3418,7.63671 7.3416924,7.6353602 0 0 1 -7.3418,7.63477 7.3416924,7.6353602 0 0 1 -7.34179,-7.63477 7.3416924,7.6353602 0 0 1 7.34179,-7.63671 z"
           style="fill:#d04848;fill-opacity:1;fill-rule:evenodd;stroke:#8d8d8d;stroke-width:1px;stroke-linecap:butt;stroke-linejoin:miter;stroke-opacity:1" />
        <path
           sodipodi:nodetypes="cccccccccccccc"
           inkscape:connector-curvature="0"
           id="path38213"
           d="m 273.2252,265.33943 c -6.69921,-0.24743 -7.4555,3.78851 -8.17737,3.03948 0,0 -0.27204,2.13615 -1.21183,5.266 -1.6521,2.28239 -3.44846,4.66702 -4.63877,7.29007 -1.38316,2.60804 -1.71949,5.32423 -1.46834,8.30659 0.0922,1.70912 -0.66624,4.63861 1.75951,4.78916 -1.22366,-0.0706 1.88508,0.50955 1.5243,0.8539 1.55424,2.30642 4.10273,3.85486 6.19488,5.56112 2.50073,1.92165 4.95914,3.70628 7.11357,5.96371 0.67395,0.75951 2.55892,1.10448 3.07296,2.19351 -0.028,-1.5382 0.92844,1.93629 1.47886,0.23044 1.64909,2.04881 4.74473,-0.41161 6.75376,1.17484 9.65969,-0.0292 9.87466,-0.30285 19.48519,-0.40435 11.04004,-0.60208 15.3573,0.29548 21.52964,-2.29178"
           style="fill:none;fill-rule:evenodd;stroke:#000000;stroke-width:5;stroke-linecap:square;stroke-linejoin:round;stroke-miterlimit:4;stroke-dasharray:none;stroke-opacity:1" />
        <path
           sodipodi:nodetypes="cccccc"
           inkscape:connector-curvature="0"
           id="path38222"
           d="m 349.6838,296.74054 c 4.50427,-2.99848 10.08218,-7.85695 11.31225,-14.02281 1.53497,-5.79234 3.03912,-13.30275 -0.90732,-18.33305 -3.01396,-3.72398 -7.7636,-7.12205 -12.69123,-8.99138 -6.02801,-1.83503 -10.00662,-1.10523 -16.29113,0.45155 -2.46205,2.15517 -6.66139,3.55899 -10.412,3.30646"
           style="fill:none;fill-rule:evenodd;stroke:#000000;stroke-width:5;stroke-linecap:butt;stroke-linejoin:miter;stroke-miterlimit:4;stroke-dasharray:none;stroke-opacity:1" />
        <ellipse
           ry="7.7222776"
           rx="7.1193609"
           cy="309.60703"
           cx="322.58102"
           id="path38229"
           style="opacity:1;fill:none;fill-opacity:1;stroke:#8d8d8d;stroke-width:0.99010509;stroke-linecap:square;stroke-linejoin:round;stroke-miterlimit:4;stroke-dasharray:none;stroke-opacity:1" />
        <path
           sodipodi:nodetypes="cccccc"
           inkscape:connector-curvature="0"
           id="path38231"
           d="m 311.96969,307.07479 6.14975,-0.48233 0.48233,5.06449 -14.10824,0.36175 2.89399,-1.80874 z"
           style="fill:#000000;fill-rule:evenodd;stroke:none;stroke-width:1px;stroke-linecap:butt;stroke-linejoin:miter;stroke-opacity:1" />
      </g>
      <g
         id="g38240"
         transform="matrix(0.9958844,0.09063258,-0.09063258,0.9958844,13.227544,447.16315)">
        <path
           style="fill:#8bb8e9;fill-opacity:1;fill-rule:evenodd;stroke:#8d8d8d;stroke-width:1px;stroke-linecap:butt;stroke-linejoin:miter;stroke-opacity:1"
           d="m 330.55855,268.30794 c -12.24183,21.48908 -27.80412,28.17928 -46.40039,29.36524 39.73911,67.28539 76.59341,133.67008 91.625,193.23437 32.66489,7.4145 51.57432,-6.56864 70.48047,-20.55664 -31.44748,-86.3368 -75.64097,-138.68385 -115.70508,-202.04297 z m -7.92969,33.47657 a 7.3416924,7.6353602 0 0 1 7.3418,7.63671 7.3416924,7.6353602 0 0 1 -7.3418,7.63477 7.3416924,7.6353602 0 0 1 -7.34179,-7.63477 7.3416924,7.6353602 0 0 1 7.34179,-7.63671 z"
           id="path38242"
           inkscape:connector-curvature="0" />
        <path
           style="fill:none;fill-rule:evenodd;stroke:#000000;stroke-width:5;stroke-linecap:square;stroke-linejoin:round;stroke-miterlimit:4;stroke-dasharray:none;stroke-opacity:1"
           d="m 273.2252,265.33943 c -6.69921,-0.24743 -7.4555,3.78851 -8.17737,3.03948 0,0 -0.27204,2.13615 -1.21183,5.266 -1.6521,2.28239 -3.44846,4.66702 -4.63877,7.29007 -1.38316,2.60804 -1.71949,5.32423 -1.46834,8.30659 0.0922,1.70912 -0.66624,4.63861 1.75951,4.78916 -1.22366,-0.0706 1.88508,0.50955 1.5243,0.8539 1.55424,2.30642 4.10273,3.85486 6.19488,5.56112 2.50073,1.92165 4.95914,3.70628 7.11357,5.96371 0.67395,0.75951 2.55892,1.10448 3.07296,2.19351 -0.028,-1.5382 0.92844,1.93629 1.47886,0.23044 1.64909,2.04881 4.74473,-0.41161 6.75376,1.17484 9.65969,-0.0292 9.87466,-0.30285 19.48519,-0.40435 11.04004,-0.60208 15.3573,0.29548 21.52964,-2.29178"
           id="path38244"
           inkscape:connector-curvature="0"
           sodipodi:nodetypes="cccccccccccccc" />
        <path
           style="fill:none;fill-rule:evenodd;stroke:#000000;stroke-width:5;stroke-linecap:butt;stroke-linejoin:miter;stroke-miterlimit:4;stroke-dasharray:none;stroke-opacity:1"
           d="m 349.6838,296.74054 c 4.50427,-2.99848 10.08218,-7.85695 11.31225,-14.02281 1.53497,-5.79234 3.03912,-13.30275 -0.90732,-18.33305 -3.01396,-3.72398 -7.7636,-7.12205 -12.69123,-8.99138 -6.02801,-1.83503 -10.00662,-1.10523 -16.29113,0.45155 -2.46205,2.15517 -7.85678,3.66778 -11.60739,3.41525"
           id="path38246"
           inkscape:connector-curvature="0"
           sodipodi:nodetypes="cccccc" />
        <ellipse
           style="opacity:1;fill:none;fill-opacity:1;stroke:#8d8d8d;stroke-width:0.99010509;stroke-linecap:square;stroke-linejoin:round;stroke-miterlimit:4;stroke-dasharray:none;stroke-opacity:1"
           id="ellipse38248"
           cx="322.58102"
           cy="309.60703"
           rx="7.1193609"
           ry="7.7222776" />
        <path
           style="fill:#000000;fill-rule:evenodd;stroke:none;stroke-width:1px;stroke-linecap:butt;stroke-linejoin:miter;stroke-opacity:1"
           d="m 311.96969,307.07479 6.14975,-0.48233 0.48233,5.06449 -14.10824,0.36175 2.89399,-1.80874 z"
           id="path38250"
           inkscape:connector-curvature="0"
           sodipodi:nodetypes="cccccc" />
      </g>
      <g
         id="g38252"
         transform="matrix(-1,0,0,1,895.2909,60.155773)">
        <path
           style="fill:none;fill-rule:evenodd;stroke:#000000;stroke-width:5;stroke-linecap:square;stroke-linejoin:round;stroke-miterlimit:4;stroke-dasharray:none;stroke-opacity:1"
           d="m 282.39312,266.32171 c -16.78485,3.41892 -19.06026,6.87428 -23.19589,14.61327 -1.38316,2.60804 -1.71949,5.32423 -1.46834,8.30659 0.79091,15.69279 3.39638,15.37318 16.59226,17.16789 0.67395,0.75951 2.55892,1.10448 3.07296,2.19351 -0.028,-1.5382 0.92844,1.93629 1.47886,0.23044 1.64909,2.04881 4.74473,-0.41161 6.75376,1.17484 9.65969,-0.0292 9.87466,-0.30285 19.48519,-0.40435 11.04004,-0.60208 15.3573,0.54525 21.52964,-2.04201"
           id="path38256"
           inkscape:connector-curvature="0"
           sodipodi:nodetypes="ccccccccc" />
        <path
           style="fill:#ead888;fill-opacity:1;fill-rule:evenodd;stroke:#8d8d8d;stroke-width:1px;stroke-linecap:butt;stroke-linejoin:miter;stroke-opacity:1"
           d="m 330.55855,268.30794 c -12.24183,21.48908 -27.80412,28.17928 -46.40039,29.36524 39.73911,67.28539 81.17737,134.32493 107.01401,188.97784 32.66489,7.4145 45.68065,-6.56864 64.5868,-20.55664 C 418.09041,386.96094 370.62266,331.66706 330.55855,268.30794 Z m -7.92969,33.47657 c 4.05525,-6e-5 7.34252,3.41925 7.3418,7.63671 -3.1e-4,4.21671 -3.28727,7.63483 -7.3418,7.63477 -4.05452,6e-5 -7.34148,-3.41807 -7.34179,-7.63477 -7.2e-4,-4.21746 3.28654,-7.63677 7.34179,-7.63671 z"
           id="path38254"
           inkscape:connector-curvature="0"
           sodipodi:nodetypes="cccccccccc" />
        <path
           style="fill:none;fill-rule:evenodd;stroke:#000000;stroke-width:5;stroke-linecap:butt;stroke-linejoin:miter;stroke-miterlimit:4;stroke-dasharray:none;stroke-opacity:1"
           d="m 328.07371,307.21816 c 1.82428,-1.21442 9.66147,-2.16066 15.69603,-5.99378 8.86515,-5.63109 16.49443,-14.83804 17.22631,-18.50665 1.53497,-5.79234 3.03912,-13.30275 -0.90732,-18.33305 -3.01396,-3.72398 -7.7636,-7.12205 -12.69123,-8.99138 -6.02801,-1.83503 -10.00662,-1.10523 -16.29113,0.45155 -2.46205,2.15517 -6.33396,3.23156 -9.75715,4.28874"
           id="path38258"
           inkscape:connector-curvature="0"
           sodipodi:nodetypes="csccccc" />
        <ellipse
           style="opacity:1;fill:none;fill-opacity:1;stroke:#8d8d8d;stroke-width:0.99010509;stroke-linecap:square;stroke-linejoin:round;stroke-miterlimit:4;stroke-dasharray:none;stroke-opacity:1"
           id="ellipse38260"
           cx="322.58102"
           cy="309.60703"
           rx="7.1193609"
           ry="7.7222776" />
        <path
           style="fill:#000000;fill-rule:evenodd;stroke:none;stroke-width:1px;stroke-linecap:butt;stroke-linejoin:miter;stroke-opacity:1"
           d="m 327.11104,304.61699 2.47832,-0.6734 1.95453,0.0295 3.42916,3.42736 -7.54812,2.48341 -9.50695,-0.48453 2.89399,-1.80874 z"
           id="path38262"
           inkscape:connector-curvature="0"
           sodipodi:nodetypes="cccccccc" />
      </g>
      <g
         id="g38264"
         transform="translate(231.27743,396.27414)">
        <path
           style="fill:#9d78d0;fill-opacity:1;fill-rule:evenodd;stroke:#8d8d8d;stroke-width:1px;stroke-linecap:butt;stroke-linejoin:miter;stroke-opacity:1"
           d="m 330.55855,268.30794 c -12.24183,21.48908 -27.80412,28.17928 -46.40039,29.36524 31.17312,70.71179 66.38644,137.75287 91.625,193.23437 32.66489,7.4145 45.93341,-20.67092 64.83956,-34.65892 C 396.48318,382.60388 370.62266,331.66706 330.55855,268.30794 Z m -7.92969,33.47657 c 4.05525,-6e-5 7.34252,3.41925 7.3418,7.63671 -3.1e-4,4.21671 -3.28727,7.63483 -7.3418,7.63477 -4.05452,6e-5 -7.34148,-3.41807 -7.34179,-7.63477 -7.2e-4,-4.21746 3.28654,-7.63677 7.34179,-7.63671 z"
           id="path38266"
           inkscape:connector-curvature="0"
           sodipodi:nodetypes="cccccccccc" />
        <path
           style="fill:none;fill-rule:evenodd;stroke:#000000;stroke-width:5;stroke-linecap:square;stroke-linejoin:round;stroke-miterlimit:4;stroke-dasharray:none;stroke-opacity:1"
           d="m 272.5762,265.33943 c -6.48288,-0.6801 -6.8065,3.78851 -7.52837,3.03948 0,0 -0.27204,2.13615 -1.21183,5.266 -1.6521,2.28239 -3.44846,4.66702 -4.63877,7.29007 -1.38316,2.60804 -1.71949,5.32423 -1.46834,8.30659 0.0922,1.70912 -0.66624,4.63861 1.75951,4.78916 -1.22366,-0.0706 1.88508,0.50955 1.5243,0.8539 1.55424,2.30642 4.10273,3.85486 6.19488,5.56112 2.50073,1.92165 4.95914,3.70628 7.11357,5.96371 0.67395,0.75951 2.55892,1.10448 3.07296,2.19351 -0.028,-1.5382 0.92844,1.93629 1.47886,0.23044 1.64909,2.04881 4.74473,-0.41161 6.75376,1.17484 9.65969,-0.0292 9.87466,-0.30285 19.48519,-0.40435 11.04004,-0.60208 15.3573,0.29548 21.52964,-2.29178"
           id="path38268"
           inkscape:connector-curvature="0"
           sodipodi:nodetypes="cccccccccccccc" />
        <path
           style="fill:none;fill-rule:evenodd;stroke:#000000;stroke-width:5;stroke-linecap:butt;stroke-linejoin:miter;stroke-miterlimit:4;stroke-dasharray:none;stroke-opacity:1"
           d="m 349.0348,297.38954 c 4.50427,-2.99848 10.73118,-8.50595 11.96125,-14.67181 1.53497,-5.79234 3.03912,-13.30275 -0.90732,-18.33305 -3.01396,-3.72398 -7.7636,-7.12205 -12.69123,-8.99138 -6.02801,-1.83503 -10.00662,-1.10523 -16.29113,0.45155 -2.46205,2.15517 -12.7187,3.12632 -16.46931,2.44113"
           id="path38270"
           inkscape:connector-curvature="0"
           sodipodi:nodetypes="cccccc" />
        <ellipse
           style="opacity:1;fill:none;fill-opacity:1;stroke:#8d8d8d;stroke-width:0.99010509;stroke-linecap:square;stroke-linejoin:round;stroke-miterlimit:4;stroke-dasharray:none;stroke-opacity:1"
           id="ellipse38272"
           cx="322.58102"
           cy="309.60703"
           rx="7.1193609"
           ry="7.7222776" />
        <path
           style="fill:#000000;fill-rule:evenodd;stroke:none;stroke-width:1px;stroke-linecap:butt;stroke-linejoin:miter;stroke-opacity:1"
           d="m 311.96969,307.07479 6.14975,-0.48233 0.48233,5.06449 -14.10824,0.36175 2.89399,-1.80874 z"
           id="path38274"
           inkscape:connector-curvature="0"
           sodipodi:nodetypes="cccccc" />
      </g>
    </g>
  </g>
  <metadata
     id="metadata37650">
    <rdf:RDF>
      <cc:Work>
        <dc:format>image/svg+xml</dc:format>
        <dc:type
           rdf:resource="http://purl.org/dc/dcmitype/StillImage" />
        <cc:license
           rdf:resource="http://creativecommons.org/publicdomain/zero/1.0/" />
        <dc:publisher>
          <cc:Agent
             rdf:about="http://openclipart.org/">
            <dc:title>Openclipart</dc:title>
          </cc:Agent>
        </dc:publisher>
        <dc:title>Bamboo graphic</dc:title>
        <dc:date></dc:date>
        <dc:description>remix by j4p4n</dc:description>
        <dc:source></dc:source>
        <dc:creator>
          <cc:Agent>
            <dc:title>aungkarns</dc:title>
          </cc:Agent>
        </dc:creator>
        <dc:subject>
          <rdf:Bag />
        </dc:subject>
      </cc:Work>
      <cc:License
         rdf:about="http://creativecommons.org/publicdomain/zero/1.0/">
        <cc:permits
           rdf:resource="http://creativecommons.org/ns#Reproduction" />
        <cc:permits
           rdf:resource="http://creativecommons.org/ns#Distribution" />
        <cc:permits
           rdf:resource="http://creativecommons.org/ns#DerivativeWorks" />
      </cc:License>
    </rdf:RDF>
  </metadata>
</svg>
