<?xml version="1.0" encoding="UTF-8" standalone="no"?>
<svg xmlns="http://www.w3.org/2000/svg" width="180" height="185" version="1.0">
  <path fill-opacity=".19607843" fill-rule="evenodd" d="M164.07127 82.212594c6.71378 47.915716-23.69276 91.812616-67.914894 98.046476-44.222155 6.23387-85.513875-27.55595-92.2276468-75.47165-6.71377-47.915724 23.6927618-91.812624 67.9149018-98.046488C116.06577.50706203 157.3575 34.296886 164.07127 82.212594z"/>
  <path fill="#225b22" fill-rule="evenodd" d="M176.07132 80.212628c6.71379 47.915702-23.69274 91.812582-67.91489 98.046432-44.222154 6.23386-85.513899-27.55596-92.227694-75.47166C9.2149416 54.871706 39.621474 10.97482 83.843627 4.7409676 128.06578-1.4928848 169.35753 32.296929 176.07132 80.212628z"/>
  <path fill="#e5f3e6" fill-rule="evenodd" d="M160.05717 82.470148c5.37104 38.332552-18.95418 73.450052-54.33189 78.437142-35.377721 4.98709-68.4111-22.04475-73.782133-60.3773-5.371033-38.332554 18.954181-73.450057 54.331897-78.437145 35.377716-4.987086 68.411096 22.044753 73.782126 60.377303z"/>
  <g stroke-width=".125" transform="translate(-156.20474 -18.937087) scale(.75021)">
    <path fill="#225b22" stroke="#225b22" d="M338.67904 83.556063c4.8-6.799999 18.4-6.933333 21.6 1.466667 2.13334 4.4 4.13334 9.066666 5.46667 13.866666 2 8.533334-.4 17.066664-2.4 25.333334 11.73333.13333 23.6 0 35.33333.13333 6.93333-.26666 12.53333 6.93334 11.2 13.6-.66667 3.33334-3.06667 6.13334-5.2 8.66667 2.93333 5.33333-.13333 10.8-3.2 15.2-.13333 5.46666.26667 11.33333-4.26667 15.2 2.53334 9.33333-4.93333 19.06667-14.53333 19.73333-17.33333.26667-34.8.13334-52.13333.13334-3.86667.26666-7.06667-2.13334-10-4.13334-.13333 2.66667.4 7.2-3.2 7.46667-12.93333.4-25.86667 0-38.8.26667-2.4 0-5.6-.13334-6.4-2.8-1.6-6.93334-1.46667-14.13334-1.86667-21.20001-1.6-13.33333-2.4-26.66666-3.06666-39.99999.53333-.66667 1.6-2.13334 2.13333-2.8 16.66667-.93334 33.33333.13333 49.86667-.26667 7.06666-7.73333 12.4-16.66667 17.2-25.86667 4.66666-7.33333.26666-16.266664 2.26666-23.999997m5.46667 2.666667c-.8 6.4.53333 13.066666-.66667 19.46667-2.53333 5.86666-6 11.46666-9.33333 16.93333-4.26667 6.4-8.26667 13.06667-14.4 17.73333-1.2.66667-2.4 1.2-3.6 1.86667 0 14.93333 0 30 .13333 44.93333.8-.13333 2.53334-.4 3.46667-.53333 4.13333 1.06667 7.46667 4.53333 12 4 9.2 0 18.53333.4 27.73333.26667 7.2.26666 14.53333.13333 21.73333.13333 5.2.4 10.26667-4.13333 10.66667-9.33333-.26667-2.26667-1.86667-4.13334-2.8-6.13334 2.93333-2 6.8-4.26667 6.8-8.4.53333-2.66667-1.33333-4.66667-2.53333-6.8 2.13333-1.73333 4.66666-3.33333 6.26666-5.73333 1.33334-3.46667-.26666-6.93333-1.86666-9.86667 4.93333-2.53333 9.86666-9.46666 4.26666-13.86666-2.53333-.66667-4.93333-1.06667-7.46666-.93334-12.53334 0-25.06667.13334-37.6-.13333 1.06667-9.33333 4.66667-18.66667 3.33333-28.13333-1.33333-5.466671-3.06666-10.800004-5.86666-15.733337-.93334-1.733333-3.33334-1.466666-4.93334-2.133333-1.86666.533333-4.13333.666667-5.33333 2.4m-71.6 52.8c1.2 12.4 2 24.93333 2.93333 37.46666.4 6.13334.53334 12.40001 1.86667 18.40001 11.06667.13333 22.13333.13333 33.2.13333 0-18.66667.13333-37.33333-.13333-56-12.53334-.13333-25.2 0-37.86667 0z"/>
    <path fill="#e5f3e6" stroke="#e5f3e6" d="M344.14571 86.22273c1.2-1.733333 3.46667-1.866667 5.33333-2.4 1.2 6.4 3.46667 12.666666 3.86667 19.2-2 9.46667-10.53333 16.13333-12 25.73333 5.2.53334 10.4.93334 15.6 1.06667 12.53333.26667 25.06666.13333 37.6.13333 2.53333-.13333 4.93333.26667 7.46666.93334-5.86666.13333-11.6.26666-17.33333.26666.53333 4-.4 8-2.4 11.46667-2 3.33333-.8 7.33333-1.33333 11.06667-.8 2.53333-2.53334 4.8-3.46667 7.33333-.13333 2.66666.53333 5.33333.4 8-.8 2.53333-2.53333 4.8-3.86667 7.2.8 4.66667 1.73334 9.86667-1.86666 13.73333-4.26667.26667-8.53333.53334-12.66667.93334-9.2.13333-18.53333-.26667-27.73333-.26667-4.53333.53333-7.86667-2.93333-12-4 0-15.46667-.13333-30.8 0-46.26667 6.13333-4.66666 10.13333-11.33333 14.4-17.73333 3.33333-5.46667 6.8-11.06667 9.33333-16.93333 1.2-6.400004-.13333-13.06667.66667-19.46667z"/>
    <path fill="#c7e1c6" stroke="#c7e1c6" d="M349.47904 83.82273c1.6.666667 4 .4 4.93334 2.133333 2.8 4.933333 4.53333 10.266666 5.86666 15.733337 1.33334 9.46666-2.26666 18.8-3.33333 28.13333-5.2-.13333-10.4-.53333-15.6-1.06667 1.46667-9.6 10-16.26666 12-25.73333-.4-6.533334-2.66667-12.8-3.86667-19.2zm35.2 47.33333c5.73333 0 11.46667-.13333 17.33333-.26666 5.6 4.4.66667 11.33333-4.26666 13.86666 1.6 2.93334 3.2 6.4 1.86666 9.86667-1.6 2.4-4.13333 4-6.26666 5.73333 1.2 2.13333 3.06666 4.13333 2.53333 6.8 0 4.13333-3.86667 6.4-6.8 8.4.93333 2 2.53333 3.86667 2.8 6.13334-.4 5.2-5.46667 9.73333-10.66667 9.33333-7.2 0-14.53333.13333-21.73333-.13333 4.13334-.4 8.4-.66667 12.66667-.93334 3.6-3.86666 2.66666-9.06666 1.86666-13.73333 1.33334-2.4 3.06667-4.66667 3.86667-7.2.13333-2.66667-.53333-5.33334-.4-8 .93333-2.53333 2.66667-4.8 3.46667-7.33333.53333-3.73334-.66667-7.73334 1.33333-11.06667 2-3.46667 2.93333-7.46667 2.4-11.46667z"/>
    <path fill="#377536" stroke="#377536" d="M272.54571 139.02273c12.66667 0 25.33333-.13333 37.86667 0 .26666 18.66667.13333 37.33333.13333 56-11.06667 0-22.13333 0-33.2-.13333-1.33333-6-1.46667-12.26667-1.86667-18.40001-.93333-12.53333-1.73333-25.06666-2.93333-37.46666m21.33333 44.66667c-.26666 2.66666-.26666 5.33333 0 8.13333 2.4 1.6 5.46667 1.86667 8.26667 1.33333 3.73333-1.86666 3.06667-6.8 1.6-9.86666-3.2-1.46667-7.06667-1.86667-9.86667.4z"/>
    <path fill="#c7e1c6" stroke="#c7e1c6" d="M316.14571 142.22273c1.2-.66667 2.4-1.2 3.6-1.86667-.13333 15.46667 0 30.8 0 46.26667-.93333.13333-2.66667.4-3.46667.53333-.13333-14.93333-.13333-30-.13333-44.93333z"/>
    <path fill="#e5f3e6" stroke="#e5f3e6" d="M293.87904 183.6894c2.8-2.26667 6.66667-1.86667 9.86667-.4 1.46667 3.06666 2.13333 8-1.6 9.86666-2.8.53334-5.86667.26667-8.26667-1.33333-.26666-2.8-.26666-5.46667 0-8.13333m4.53334 3.06666.53333-1.33333c-2.26667-4.13333-5.2 3.2-.53333 1.33333m1.73333-2.13333c-.66667 2.13333.13333 2.93333 2.26667 2.26667.66666-2.26667-.13334-2.93334-2.26667-2.26667m-4.4 4.26667c-.93333 2 2.4 3.46666 3.2 1.33333-.4-.4-1.46667-1.33333-2-1.86667l-1.2.53334m4.13333-.13334c-1.46666 3.06667 4.13334 3.2 2.66667 0h-2.66667z"/>
    <path fill="#c7e1c6" stroke="#c7e1c6" d="M298.41238 186.75606c-4.66667 1.86667-1.73334-5.46666.53333-1.33333zm1.73333-2.13333c2.13333-.66667 2.93333 0 2.26667 2.26667-2.13334.66666-2.93334-.13334-2.26667-2.26667zm-4.4 4.26667 1.2-.53334c.53333.53334 1.6 1.46667 2 1.86667-.8 2.13333-4.13333.66667-3.2-1.33333zm4.13333-.13334h2.66667c1.46667 3.2-4.13333 3.06667-2.66667 0z"/>
  </g>
</svg>